<svg width="44" height="43" viewBox="0 0 44 43" fill="none" xmlns="http://www.w3.org/2000/svg">
<g filter="url(#filter0_d_10_462)">
<path d="M16.5417 0C9.63632 0 4 5.50524 4 12.25C4 18.9948 9.63632 24.5 16.5417 24.5C19.6735 24.5 22.5348 23.359 24.7371 21.4922L25.5 22.2373V24.5L36.25 35L39.8333 31.5L29.0833 21H26.7668L26.0039 20.2549C27.9152 18.1038 29.0833 15.309 29.0833 12.25C29.0833 5.50524 23.447 0 16.5417 0ZM16.5417 3.5C21.5104 3.5 25.5 7.39678 25.5 12.25C25.5 17.1032 21.5104 21 16.5417 21C11.5729 21 7.58333 17.1032 7.58333 12.25C7.58333 7.39678 11.5729 3.5 16.5417 3.5Z" fill="white" fill-opacity="0.56"/>
</g>
<defs>
<filter id="filter0_d_10_462" x="0" y="0" width="43.8335" height="43" filterUnits="userSpaceOnUse" color-interpolation-filters="sRGB">
<feFlood flood-opacity="0" result="BackgroundImageFix"/>
<feColorMatrix in="SourceAlpha" type="matrix" values="0 0 0 0 0 0 0 0 0 0 0 0 0 0 0 0 0 0 127 0" result="hardAlpha"/>
<feOffset dy="4"/>
<feGaussianBlur stdDeviation="2"/>
<feColorMatrix type="matrix" values="0 0 0 0 0 0 0 0 0 0 0 0 0 0 0 0 0 0 0.25 0"/>
<feBlend mode="normal" in2="BackgroundImageFix" result="effect1_dropShadow_10_462"/>
<feBlend mode="normal" in="SourceGraphic" in2="effect1_dropShadow_10_462" result="shape"/>
</filter>
</defs>
</svg>
