<svg width="29" height="27" viewBox="0 0 29 27" fill="none" xmlns="http://www.w3.org/2000/svg">
<path d="M28.3491 23.4584L17.6454 13.4726L28.2911 3.54144C29.1592 2.73111 29.1592 1.41754 28.2911 0.607658C27.4225 -0.202227 26.0149 -0.202227 25.1462 0.607658L14.5006 10.5388L3.85541 0.607658C2.98678 -0.202227 1.57919 -0.202227 0.710565 0.607658C-0.15806 1.41799 -0.15806 2.73155 0.710565 3.54144L11.3557 13.4726L0.651103 23.4584C-0.217523 24.2687 -0.217523 25.5818 0.651103 26.3922C1.08542 26.7973 1.65435 26.9997 2.22376 26.9997C2.79317 26.9997 3.36211 26.7973 3.79642 26.3922L14.5006 16.4064L25.2043 26.3922C25.6386 26.7973 26.2075 26.9997 26.7769 26.9997C27.3463 26.9997 27.9153 26.7973 28.3496 26.3922C29.2173 25.5823 29.2173 24.2687 28.3491 23.4584Z" fill="#FFC738"/>
</svg>
