<svg width="29" height="27" viewBox="0 0 29 27" fill="none" xmlns="http://www.w3.org/2000/svg">
<path d="M28.3495 23.4581L17.6458 13.4724L28.2915 3.54119C29.1596 2.73086 29.1596 1.4173 28.2915 0.607414C27.4228 -0.202471 26.0152 -0.202471 25.1466 0.607414L14.501 10.5386L3.85577 0.607414C2.98715 -0.202471 1.57956 -0.202471 0.710931 0.607414C-0.157694 1.41774 -0.157694 2.73131 0.710931 3.54119L11.3561 13.4724L0.651469 23.4581C-0.217156 24.2685 -0.217156 25.5816 0.651469 26.3919C1.08578 26.7971 1.65472 26.9994 2.22413 26.9994C2.79354 26.9994 3.36247 26.7971 3.79679 26.3919L14.501 16.4062L25.2046 26.3919C25.639 26.7971 26.2079 26.9994 26.7773 26.9994C27.3467 26.9994 27.9157 26.7971 28.35 26.3919C29.2176 25.582 29.2176 24.2685 28.3495 23.4581Z" fill="white" fill-opacity="0.78"/>
</svg>
